<svg id="Layer_1" data-name="Layer 1" xmlns="http://www.w3.org/2000/svg" viewBox="0 0 368.42 349.49"><defs><style>.cls-1{fill:#21409a;}.cls-2{fill:#d5b700;}.cls-3{fill:#df1a22;}.cls-4{fill:#00a651;}</style></defs><title>IITG Silver Jubilee Logo Design_Final</title><g id="IIT_Guwahati" data-name="IIT Guwahati"><path class="cls-1" d="M189.26,310.11c-18.49,0-37.6-4-56.37-7.94-22.35-4.69-43.47-9.11-62.3-6.64l-.33-2.47.33,2.47c-27.95,3.68-50-13.48-58.88-45.88-6.53-23.76-5.07-53.09,3.91-78.48,10.12-28.59,28.65-49.92,52.19-60,15.56-6.7,30-14.13,44-21.32C139.79,75.4,164,63,187.45,61.3c26.14-1.84,48,10.27,68.8,38.13,21.47,28.77,39,78.85,29.77,125.9-6.18,31.55-23.67,56.8-50.58,73C220.94,307.08,205.33,310.11,189.26,310.11ZM82.07,289.82c16.28,0,33.66,3.65,51.85,7.46,34.14,7.16,69.44,14.56,98.94-3.22,25.66-15.47,42.35-39.57,48.26-69.69,8.93-45.55-8.07-94.07-28.88-121.95-19.68-26.37-40.16-37.85-64.43-36.13-22.47,1.58-46.22,13.81-73.73,28-14,7.23-28.57,14.71-44.3,21.47C47.55,125.29,30,145.58,20.34,172.84c-8.66,24.46-10.08,52.68-3.81,75.48,8.32,30.22,27.78,45.62,53.4,42.26h0A93.55,93.55,0,0,1,82.07,289.82Z"/><path class="cls-2" d="M142.89,288.13c-5.22,0-11-.3-17.44-.91-12.23-1.15-30.61-4.05-48.71-11.27s-31.11-16.81-39-28.67c-9.37-14-11.16-30.8-5.31-49.83,6.14-20,20-32.22,33.46-44,14.65-12.91,28.48-25.1,33.91-46.83a103.77,103.77,0,0,1,74-75.77c37.85-10.42,77.83.86,107,30.17h0c18.56,18.69,33.52,37.85,43.27,55.41,11.19,20.18,15.67,38.2,13.31,53.56-2.49,16.27-12.58,29.16-30,38.33-11.17,5.89-24.25,7.07-36.9,8.22-16.79,1.53-32.64,3-44.16,14.46-8.88,8.87-15.63,16.93-21.59,24C187.39,275.57,176.87,288.13,142.89,288.13ZM201.73,32a100.41,100.41,0,0,0-26.68,3.62,98.8,98.8,0,0,0-70.43,72.16C98.81,131,83.73,144.3,69.16,157.15c-13.51,11.9-26.27,23.14-32,41.77-5.39,17.52-3.81,32.86,4.69,45.58,19.72,29.51,69.33,36.35,84.06,37.75,45.73,4.33,55.46-7.3,74.85-30.47,6-7.19,12.85-15.34,21.89-24.36,12.8-12.78,30.31-14.37,47.23-15.91,12.17-1.1,24.75-2.24,35-7.66,15.94-8.39,25.15-20,27.39-34.66,4.15-27.06-16-65.21-55.19-104.69C256.1,43.34,229.19,32,201.73,32Z"/><path class="cls-3" d="M161,330c-25.94,0-45.89-3.67-62.8-11.56-17.87-8.34-32.58-21.4-46.28-41.1-18-26-4.2-58.59,6.92-84.81,5.78-13.61,11.24-26.47,11.35-36,.08-7.17,0-13.8-.16-20.22-.69-37.93-1.15-63,45.1-83,36.11-15.66,80.24-17.31,131.17-4.91,20,4.86,43.88,17.58,63.9,34,22.78,18.69,38,40.07,43,60.18,5.62,22.87-2,44.25-22,61.81-20.52,18-32.63,37.13-44.35,55.64C263.05,297.53,242.51,330,161,330ZM183,45.11c-24.27,0-46.28,4.24-65.81,12.71C74,76.54,74.37,99,75.05,136.17c.12,6.46.24,13.14.16,20.38-.12,10.51-5.77,23.81-11.74,37.9-11.2,26.39-23.9,56.3-7.42,80C81.33,310.8,110.76,325,161,325c78.74,0,97.65-29.86,121.6-67.67,11.35-17.92,24.21-38.24,45.27-56.72,18.79-16.48,25.67-35.61,20.45-56.86-10.58-43.1-67.24-81.78-103.21-90.53C223,47.8,202.27,45.11,183,45.11Z"/></g><path class="cls-4" d="M111.06,233.46a99.52,99.52,0,0,0,14.07-12.2,29.44,29.44,0,0,0,8.47-20.7,17.79,17.79,0,0,0-6.83-14.06c-4.42-3.72-11.14-5.6-20-5.6a45.4,45.4,0,0,0-11.51,1.2l-1.46.4L92,195.2l3.23-.73a49.48,49.48,0,0,1,10.3-.85c9.26,0,13.58,3,13.58,9.59a20.63,20.63,0,0,1-5.34,14c-3.79,4.33-10.54,9.83-20.05,16.37l-.82.56-1.66,11.2h45.47l1.79-12.62-2.75.12C127.7,233.16,119.4,233.38,111.06,233.46Z"/><path class="cls-4" d="M179.82,214.52c-5.55-3.48-13.84-5.36-24.63-5.59a143.61,143.61,0,0,1,1.2-15.58,193.33,193.33,0,0,1,24.81,1.55l2.5.34.52-13.84h-39v2.29c0,6.14-1.05,17.84-3.13,34.77l-.31,2.56h2.58c11.86,0,20.11,1.19,24.52,3.53,4,2.12,5.93,5.79,5.93,11.22,0,5-2.54,9.14-7.77,12.55-5.5,3.58-13.31,5.71-23.22,6.33l-2.71.16,2.64,11.11,1.88-.07c13-.51,23.65-4,31.54-10.23,8.07-6.43,12.17-14,12.17-22.38S186.12,218.45,179.82,214.52Z"/><path class="cls-4" d="M112.82,129.22v18.31h-3.34V129.22Z"/><path class="cls-4" d="M120,129.22v18.31h-3.35V129.22Z"/><path class="cls-4" d="M127.33,132h-5.21v-2.8H136V132h-5.27v15.51h-3.35Z"/><path class="cls-4" d="M158.4,146.69a18.29,18.29,0,0,1-5.9,1c-3.1,0-5.44-.78-7.18-2.44a9.07,9.07,0,0,1-2.55-6.74c0-5.79,4.13-9.51,10.19-9.51a12.15,12.15,0,0,1,4.87.87l-.74,2.69a9.77,9.77,0,0,0-4.16-.79c-3.91,0-6.65,2.31-6.65,6.57s2.55,6.64,6.36,6.64a6.28,6.28,0,0,0,2.52-.39v-4.56h-3.23v-2.64h6.47Z"/><path class="cls-4" d="M173.61,143.56c0,1.58.06,2.89.11,4h-2.93l-.16-2h-.06a4.78,4.78,0,0,1-4.24,2.31c-2.42,0-4.62-1.44-4.62-5.76V134.3h3.34v7.2c0,2.2.71,3.61,2.48,3.61a2.81,2.81,0,0,0,2.55-1.79,3,3,0,0,0,.19-1v-8h3.34Z"/><path class="cls-4" d="M179.24,134.3l1.39,6c.3,1.42.59,2.86.84,4.3h.05c.27-1.44.71-2.91,1.09-4.27l1.71-6H187l1.66,5.87c.41,1.55.76,3,1.06,4.43h.05c.22-1.44.52-2.88.87-4.43l1.47-5.87h3.29l-4.16,13.23h-3.1l-1.58-5.38a42.11,42.11,0,0,1-1-4.24h-.06a34.55,34.55,0,0,1-1,4.24l-1.69,5.38h-3.12l-3.91-13.23Z"/><path class="cls-4" d="M204.87,147.53l-.22-1.46h-.08a4.92,4.92,0,0,1-3.91,1.76,3.93,3.93,0,0,1-4.16-3.94c0-3.34,3-5,7.85-5v-.22c0-.87-.35-2.31-2.69-2.31a7,7,0,0,0-3.56,1l-.65-2.17a9.51,9.51,0,0,1,4.78-1.17c4.24,0,5.46,2.69,5.46,5.57v4.78a22,22,0,0,0,.19,3.18Zm-.44-6.47c-2.36-.05-4.62.47-4.62,2.48a1.76,1.76,0,0,0,1.9,1.9,2.69,2.69,0,0,0,2.61-1.82,2.2,2.2,0,0,0,.11-.73Z"/><path class="cls-4" d="M211.23,128.24h3.37v7.88h.05a4.44,4.44,0,0,1,1.66-1.52,4.53,4.53,0,0,1,2.28-.6c2.26,0,4.62,1.49,4.62,5.73v7.8h-3.34v-7.42c0-1.93-.71-3.37-2.56-3.37a2.73,2.73,0,0,0-2.71,2.88v7.91h-3.37Z"/><path class="cls-4" d="M234.22,147.53l-.22-1.46h-.08a4.92,4.92,0,0,1-3.91,1.76,3.93,3.93,0,0,1-4.16-3.94c0-3.34,3-5,7.85-5v-.22c0-.87-.35-2.31-2.69-2.31a7,7,0,0,0-3.56,1l-.65-2.17a9.51,9.51,0,0,1,4.78-1.17c4.24,0,5.46,2.69,5.46,5.57v4.78a22,22,0,0,0,.19,3.18Zm-.44-6.47c-2.36-.05-4.62.47-4.62,2.48a1.76,1.76,0,0,0,1.91,1.9,2.69,2.69,0,0,0,2.6-1.82,2.2,2.2,0,0,0,.11-.73Z"/><path class="cls-4" d="M244.25,130.52v3.78h3.18v2.5h-3.18v5.84c0,1.6.43,2.45,1.71,2.45a4.54,4.54,0,0,0,1.3-.17l.06,2.56a7.39,7.39,0,0,1-2.42.32,3.86,3.86,0,0,1-2.88-1.08,5.27,5.27,0,0,1-1-3.7V136.8h-1.91v-2.5H241v-3Z"/><path class="cls-4" d="M253.51,130.6a1.88,1.88,0,1,1-1.87-1.82A1.77,1.77,0,0,1,253.51,130.6ZM250,147.53V134.3h3.37v13.23Z"/><path class="cls-4" d="M198.29,181.68l2.39,7.09c.27.82.54,1.82.73,2.58h.09c.21-.76.46-1.73.7-2.6l2.07-7.07h3.58l-3.31,9c-1.82,5-3,7.15-4.62,8.51a6.72,6.72,0,0,1-3.51,1.71l-.76-2.83a5.61,5.61,0,0,0,2-.92,5.84,5.84,0,0,0,1.82-2.09,1.34,1.34,0,0,0,.22-.6,1.42,1.42,0,0,0-.19-.65l-4.84-12.15Z"/><path class="cls-4" d="M211.8,189.23c.08,2.4,1.95,3.43,4.07,3.43a9.93,9.93,0,0,0,3.67-.6l.49,2.31a12.5,12.5,0,0,1-4.62.82c-4.29,0-6.82-2.64-6.82-6.69,0-3.67,2.23-7.12,6.47-7.12s5.7,3.53,5.7,6.44a8.74,8.74,0,0,1-.1,1.41Zm5.81-2.33c0-1.22-.52-3.24-2.74-3.24-2.07,0-2.94,1.88-3.07,3.24Z"/><path class="cls-4" d="M230.9,194.91l-.22-1.46h-.08a4.91,4.91,0,0,1-3.91,1.76,3.93,3.93,0,0,1-4.16-3.94c0-3.34,3-5,7.85-5v-.21c0-.87-.35-2.31-2.69-2.31a7,7,0,0,0-3.56,1l-.65-2.17a9.51,9.51,0,0,1,4.78-1.17c4.24,0,5.47,2.69,5.47,5.57v4.78a20.62,20.62,0,0,0,.19,3.18Zm-.44-6.46c-2.36-.06-4.61.46-4.61,2.47a1.75,1.75,0,0,0,1.9,1.9,2.71,2.71,0,0,0,2.61-1.82,2.42,2.42,0,0,0,.1-.73Z"/><path class="cls-4" d="M237.26,186c0-1.8,0-3.07-.11-4.27h2.91l.11,2.53h.11a3.94,3.94,0,0,1,3.61-2.83,3.77,3.77,0,0,1,.79.08v3.15a5,5,0,0,0-1-.1,3,3,0,0,0-3,2.52,6.26,6.26,0,0,0-.11,1v6.84h-3.34Z"/><path class="cls-4" d="M246.77,191.84a7.35,7.35,0,0,0,3.4,1c1.47,0,2.12-.6,2.12-1.47s-.55-1.36-2.18-1.93c-2.58-.9-3.66-2.31-3.64-3.86,0-2.34,1.93-4.16,5-4.16a7.75,7.75,0,0,1,3.51.79l-.65,2.36a6,6,0,0,0-2.8-.76c-1.2,0-1.85.57-1.85,1.39s.62,1.25,2.31,1.85c2.39.87,3.51,2.09,3.53,4.05,0,2.39-1.87,4.13-5.38,4.13a8.46,8.46,0,0,1-4-.93Z"/><path class="cls-4" d="M145.85,156.68h0l-2.69,1.45-.4-1.6,3.38-1.8h1.78v15.45h-2Z"/><path class="cls-4" d="M154.72,168.7a8.66,8.66,0,0,0,1.69-.07,5.79,5.79,0,0,0,3.23-1.49,6.79,6.79,0,0,0,2-4.12h-.07a4.64,4.64,0,0,1-8.2-3.06,5.3,5.3,0,0,1,5.28-5.49c3.16,0,5.11,2.56,5.11,6.51a9.76,9.76,0,0,1-2.66,7.25,7.76,7.76,0,0,1-4.5,2.07,9.9,9.9,0,0,1-1.92.12Zm.76-8.89a3,3,0,0,0,3,3.28,3.44,3.44,0,0,0,3-1.61,1.37,1.37,0,0,0,.19-.76c0-2.64-1-4.66-3.16-4.66C156.74,156.06,155.48,157.63,155.48,159.81Z"/><path class="cls-4" d="M166.92,168.7a8.54,8.54,0,0,0,1.68-.07,5.79,5.79,0,0,0,3.24-1.49,6.79,6.79,0,0,0,2-4.12h-.07a4.52,4.52,0,0,1-3.64,1.67,4.47,4.47,0,0,1-4.56-4.73,5.3,5.3,0,0,1,5.28-5.49c3.16,0,5.11,2.56,5.11,6.51a9.76,9.76,0,0,1-2.66,7.25,7.76,7.76,0,0,1-4.5,2.07,9.9,9.9,0,0,1-1.92.12Zm.76-8.89a3,3,0,0,0,3,3.28,3.44,3.44,0,0,0,3-1.61,1.37,1.37,0,0,0,.19-.76c0-2.64-1-4.66-3.16-4.66C168.94,156.06,167.68,157.63,167.68,159.81Z"/><path class="cls-4" d="M184.37,170.18V166h-7.18v-1.38l6.89-9.86h2.26v9.6h2.17V166h-2.17v4.21Zm0-5.85v-5.16c0-.81,0-1.61.07-2.42h-.07c-.48.9-.86,1.57-1.28,2.28l-3.78,5.25v.05Z"/><path class="cls-4" d="M205.25,161.64v1.43H194.79v-1.43Z"/><path class="cls-4" d="M212.07,170.18v-1.29l1.64-1.59c3.95-3.75,5.73-5.75,5.76-8.08a2.76,2.76,0,0,0-3.07-3,5.23,5.23,0,0,0-3.28,1.31l-.67-1.48a6.8,6.8,0,0,1,4.38-1.56,4.34,4.34,0,0,1,4.73,4.49c0,2.85-2.07,5.16-5.33,8.29L215,168.4v0h6.94v1.74Z"/><path class="cls-4" d="M234.54,162.29c0,5.25-1.95,8.15-5.37,8.15-3,0-5.06-2.83-5.11-7.94s2.23-8,5.37-8S234.54,157.37,234.54,162.29Zm-8.39.23c0,4,1.24,6.3,3.14,6.3,2.14,0,3.16-2.49,3.16-6.44,0-3.8-1-6.3-3.14-6.3C227.48,156.08,226.15,158.32,226.15,162.52Z"/><path class="cls-4" d="M241,156.68h0l-2.68,1.45-.41-1.6,3.38-1.8H243v15.45h-2Z"/><path class="cls-4" d="M249.88,168.7a8.64,8.64,0,0,0,1.69-.07,5.79,5.79,0,0,0,3.23-1.49,6.85,6.85,0,0,0,2.05-4.12h-.07a4.55,4.55,0,0,1-3.64,1.67,4.48,4.48,0,0,1-4.57-4.73,5.3,5.3,0,0,1,5.28-5.49C257,154.47,259,157,259,161a9.76,9.76,0,0,1-2.66,7.25,7.76,7.76,0,0,1-4.49,2.07,10,10,0,0,1-1.93.12Zm.76-8.89a3,3,0,0,0,3,3.28,3.45,3.45,0,0,0,3.05-1.61,1.37,1.37,0,0,0,.19-.76c0-2.64-1-4.66-3.17-4.66C251.9,156.06,250.64,157.63,250.64,159.81Z"/></svg>